{
	"asset":{
		"generator":"Khronos glTF Blender I/O v3.6.27",
		"version":"2.0"
	},
	"scene":0,
	"scenes":[
		{
			"name":"Scene",
			"nodes":[
				0
			]
		}
	],
	"nodes":[
		{
			"mesh":0,
			"name":"orange",
			"scale":[
				1,
				0.8049554228782654,
				1
			]
		}
	],
	"materials":[
		{
			"doubleSided":true,
			"name":"yellow",
			"pbrMetallicRoughness":{
				"baseColorFactor":[
					0.8000000715255737,
					0.6210420727729797,
					0.042117889970541,
					1
				],
				"metallicFactor":0,
				"roughnessFactor":0.5
			}
		},
		{
			"doubleSided":true,
			"name":"white",
			"pbrMetallicRoughness":{
				"baseColorFactor":[
					0.800000011920929,
					0.800000011920929,
					0.800000011920929,
					1
				],
				"metallicFactor":0,
				"roughnessFactor":0.5
			}
		},
		{
			"doubleSided":true,
			"name":"black",
			"pbrMetallicRoughness":{
				"baseColorFactor":[
					0.021090485155582428,
					0.021090485155582428,
					0.021090485155582428,
					1
				],
				"metallicFactor":0,
				"roughnessFactor":0.5
			}
		},
		{
			"doubleSided":true,
			"name":"Material.003",
			"pbrMetallicRoughness":{
				"baseColorFactor":[
					0.8000000715255737,
					0.20173022150993347,
					0.10546595603227615,
					1
				],
				"metallicFactor":0,
				"roughnessFactor":0.5
			}
		}
	],
	"meshes":[
		{
			"name":"Mesh",
			"primitives":[
				{
					"attributes":{
						"POSITION":0,
						"NORMAL":1
					},
					"indices":2,
					"material":0
				},
				{
					"attributes":{
						"POSITION":3,
						"NORMAL":4
					},
					"indices":5,
					"material":1
				},
				{
					"attributes":{
						"POSITION":6,
						"NORMAL":7
					},
					"indices":5,
					"material":2
				},
				{
					"attributes":{
						"POSITION":8,
						"NORMAL":9
					},
					"indices":10,
					"material":3
				}
			]
		}
	],
	"accessors":[
		{
			"bufferView":0,
			"componentType":5126,
			"count":1158,
			"max":[
				0.9577365517616272,
				0.9577365517616272,
				1.2259700298309326
			],
			"min":[
				-0.9823719263076782,
				-0.9577365517616272,
				-1.2259701490402222
			],
			"type":"VEC3"
		},
		{
			"bufferView":1,
			"componentType":5126,
			"count":1158,
			"type":"VEC3"
		},
		{
			"bufferView":2,
			"componentType":5123,
			"count":6912,
			"type":"SCALAR"
		},
		{
			"bufferView":3,
			"componentType":5126,
			"count":772,
			"max":[
				1.0012720823287964,
				0.7085311412811279,
				0.6535664796829224
			],
			"min":[
				0.2843141555786133,
				-0.18214908242225647,
				-0.6535664796829224
			],
			"type":"VEC3"
		},
		{
			"bufferView":4,
			"componentType":5126,
			"count":772,
			"type":"VEC3"
		},
		{
			"bufferView":5,
			"componentType":5123,
			"count":4608,
			"type":"SCALAR"
		},
		{
			"bufferView":6,
			"componentType":5126,
			"count":772,
			"max":[
				1.0137711763381958,
				0.5428160429000854,
				0.5564929246902466
			],
			"min":[
				0.6723047494888306,
				0.11861073225736618,
				-0.5564929246902466
			],
			"type":"VEC3"
		},
		{
			"bufferView":7,
			"componentType":5126,
			"count":772,
			"type":"VEC3"
		},
		{
			"bufferView":8,
			"componentType":5126,
			"count":386,
			"max":[
				1.2200936079025269,
				-0.07811708003282547,
				0.48210418224334717
			],
			"min":[
				0.03610507771372795,
				-0.6598161458969116,
				-0.48210418224334717
			],
			"type":"VEC3"
		},
		{
			"bufferView":9,
			"componentType":5126,
			"count":386,
			"type":"VEC3"
		},
		{
			"bufferView":10,
			"componentType":5123,
			"count":2304,
			"type":"SCALAR"
		}
	],
	"bufferViews":[
		{
			"buffer":0,
			"byteLength":13896,
			"byteOffset":0,
			"target":34962
		},
		{
			"buffer":0,
			"byteLength":13896,
			"byteOffset":13896,
			"target":34962
		},
		{
			"buffer":0,
			"byteLength":13824,
			"byteOffset":27792,
			"target":34963
		},
		{
			"buffer":0,
			"byteLength":9264,
			"byteOffset":41616,
			"target":34962
		},
		{
			"buffer":0,
			"byteLength":9264,
			"byteOffset":50880,
			"target":34962
		},
		{
			"buffer":0,
			"byteLength":9216,
			"byteOffset":60144,
			"target":34963
		},
		{
			"buffer":0,
			"byteLength":9264,
			"byteOffset":69360,
			"target":34962
		},
		{
			"buffer":0,
			"byteLength":9264,
			"byteOffset":78624,
			"target":34962
		},
		{
			"buffer":0,
			"byteLength":4632,
			"byteOffset":87888,
			"target":34962
		},
		{
			"buffer":0,
			"byteLength":4632,
			"byteOffset":92520,
			"target":34962
		},
		{
			"buffer":0,
			"byteLength":4608,
			"byteOffset":97152,
			"target":34963
		}
	],
	"buffers":[
		{
			"byteLength":101760,
			"uri":"bird.bin"
		}
	]
}
